<?xml version="1.0" standalone="no"?>
<!DOCTYPE svg PUBLIC "-//W3C//DTD SVG 20010904//EN"
 "http://www.w3.org/TR/2001/REC-SVG-20010904/DTD/svg10.dtd">
<svg version="1.0" xmlns="http://www.w3.org/2000/svg"
 width="512.000000pt" height="512.000000pt" viewBox="0 0 512.000000 512.000000"
 preserveAspectRatio="xMidYMid meet">

<g transform="translate(0.000000,512.000000) scale(0.100000,-0.100000)"
fill="#000000" stroke="none">
<path d="M2225 4908 c-492 -55 -984 -286 -1356 -636 -309 -292 -553 -705 -658
-1115 -103 -403 -103 -791 0 -1194 104 -406 350 -824 653 -1109 353 -333 762
-538 1251 -626 119 -22 134 -22 1422 -26 1291 -3 1303 -3 1342 18 132 67 142
256 19 337 l-42 28 -523 5 -523 5 113 85 c127 96 323 286 417 405 271 342 440
743 502 1190 16 117 16 454 -1 575 -106 776 -563 1438 -1241 1798 -249 133
-521 219 -813 257 -129 16 -428 18 -562 3z m438 -668 c172 -54 297 -176 365
-358 35 -93 37 -244 5 -347 -53 -168 -185 -303 -359 -367 -87 -32 -262 -32
-356 0 -89 31 -171 85 -238 158 -69 75 -105 141 -130 240 -35 135 -23 249 40
379 82 169 231 282 413 315 70 12 185 3 260 -20z m-1169 -1136 c126 -32 265
-133 336 -244 114 -177 114 -423 0 -598 -77 -120 -203 -212 -336 -247 -74 -19
-212 -19 -284 0 -243 64 -420 294 -420 545 0 252 176 480 420 544 74 20 208
20 284 0z m2281 1 c101 -26 184 -74 260 -150 223 -223 222 -567 -1 -791 -74
-75 -173 -132 -264 -153 -66 -15 -207 -13 -273 4 -189 49 -346 204 -402 400
-23 77 -23 213 0 290 56 194 210 347 401 400 67 18 207 18 279 0z m-1183 -377
c21 -10 50 -37 65 -60 24 -35 28 -52 28 -109 0 -59 -4 -73 -30 -110 -104 -147
-336 -87 -353 90 -6 65 11 111 58 160 59 61 147 72 232 29z m37 -763 c280 -66
471 -356 422 -641 -54 -311 -360 -523 -661 -460 -113 24 -213 77 -290 155
-175 176 -217 428 -108 651 64 133 224 260 371 296 72 17 189 17 266 -1z"/>
</g>
</svg>
